<svg width="40" height="40" viewBox="0 0 40 40" fill="none" xmlns="http://www.w3.org/2000/svg">
<path d="M28.5188 0.000938467C27.4814 0.0248075 26.4722 0.343189 25.6088 0.918939C23.7839 1.97081 22.2187 3.41925 21.0287 5.15727C20.284 5.23209 19.5337 5.23209 18.789 5.15727C18.2553 5.15727 17.4745 5.50561 17.832 6.76194C18.1897 8.01827 19.162 9.25744 19.082 9.96844C18.9952 10.41 18.9571 10.8597 18.9682 11.3096C18.4717 12.0953 16.1505 15.8813 15.446 18.8909C15.446 18.8909 16.7722 5.61261 12.705 3.34094C8.63801 1.06861 5.36501 2.87944 4.27084 5.87311C1.93301 12.2614 5.39618 22.2486 10.28 30.3099C15.1637 38.3716 19.8013 39.8238 23.0892 39.9683C28.5867 40.2088 26.9867 39.0183 28.9617 38.9004C30.9363 38.7829 30.6477 39.9689 33.9355 39.5093C36.3322 39.1618 36.7438 37.5584 35.8367 36.8368C34.9292 36.1151 35.2323 34.3648 36.097 30.6388C36.9617 26.9128 35.7237 20.3554 34.8537 18.6661C33.9837 16.9768 34.0798 16.1164 35.0032 14.4539C35.7697 13.1796 36.2527 11.7551 36.4193 10.2774C36.498 9.70067 36.498 9.11588 36.4193 8.53911C36.4212 8.52729 36.4212 8.51526 36.4193 8.50344V8.41877C36.4193 8.41877 35.8462 10.7108 34.72 11.5339C34.5393 11.6659 34.3613 11.8016 34.1862 11.9409C34.2983 11.5133 34.721 9.70761 34.1178 8.73444C34.1178 8.73444 33.8665 12.8804 31.6568 13.0998C29.4472 13.3189 26.3202 11.0593 25.4395 10.1504C25.5037 10.5004 25.5532 10.5971 25.6217 10.8666C25.695 11.1189 25.7812 11.3663 25.8822 11.6088C26.1917 12.6086 26.5217 14.1383 26.0255 15.0951C25.2515 16.6134 23.5662 18.9501 23.737 22.2859C23.7554 24.3189 24.2117 26.324 25.0748 28.1648C25.726 29.8114 25.8963 31.3306 25.7682 31.5926C25.6402 31.8544 25.8132 33.1948 22.7442 30.8959C19.6752 28.5973 18.8475 26.2183 18.8475 26.2183C18.3638 27.5485 18.1729 28.9675 18.2878 30.3783C18.485 32.4004 18.9198 34.3923 19.5833 36.3126C19.5833 36.3126 15.5585 33.0503 15.345 26.5176C15.1422 20.5143 18.655 13.5699 19.2155 12.5008C19.3242 12.7414 19.4852 12.9563 19.6875 13.1258C19.8898 13.2951 20.1283 13.4163 20.3842 13.4806C20.3842 13.4806 18.8188 12.6181 19.9608 9.27161C21.1032 5.92511 23.4053 2.94794 25.7325 1.63827C26.6915 1.04026 27.787 0.696275 28.9158 0.638745C30.0445 0.581215 31.1693 0.81203 32.1842 1.30944C31.2798 0.537716 30.1485 0.0818018 28.9617 0.0107718C28.8143 0.00147307 28.6665 -0.00180744 28.5188 0.000938467ZM26.2012 3.10961C26.0775 3.11183 25.9543 3.12601 25.8333 3.15194C25.2462 3.28027 24.933 3.96861 25.3385 4.81861C25.4203 5.00848 25.4581 5.21439 25.4492 5.42094C25.4412 5.62786 25.3867 5.83032 25.2897 6.01327C25.7472 5.55745 26.2563 5.15652 26.8067 4.81861C27.4428 4.47579 28.1263 4.22901 28.8347 4.08627C28.4064 4.07452 27.9892 3.94744 27.627 3.71844C27.4033 3.47667 27.1206 3.29719 26.8067 3.19761C26.6109 3.13582 26.4064 3.1061 26.2012 3.10961ZM34.3197 3.39944C33.4803 3.39944 32.3658 3.58861 31.5072 3.92677C30.984 4.07431 30.5326 4.40765 30.2377 4.86427C29.7733 5.93344 32.6002 7.70544 33.737 7.37394C34.2707 7.21894 35.0632 6.06011 35.4102 5.04977C35.6452 4.32811 35.6765 3.68561 35.2442 3.51977C35.0257 3.43811 34.7012 3.39944 34.3197 3.39944ZM34.694 12.2828C34.694 12.2828 34.1167 14.2513 33.711 15.1441C33.3587 15.9353 33.2467 15.8703 32.985 15.9613C33.1114 15.6006 33.2094 15.2306 33.278 14.8546C33.4328 14.2023 33.278 14.0309 33.278 14.0309C33.1399 14.7813 32.8793 15.5039 32.5065 16.1696C32.1672 16.3071 31.7923 16.3299 31.4388 16.2346C31.0065 16.0583 30.931 14.0248 30.931 13.9073C31.6446 13.9819 32.3653 13.872 33.0242 13.5881C33.6833 13.303 34.2581 12.8535 34.694 12.2828Z" fill="#8B4513"/>
</svg>
