<svg width="40" height="40" viewBox="0 0 40 40" fill="none" xmlns="http://www.w3.org/2000/svg">
<path d="M16.9079 33.3558C16.4645 33.2141 16.4629 33.1524 16.8712 31.9141C17.2778 30.6758 17.0912 29.5275 16.3379 28.6242C15.3096 27.3959 14.8146 26.3476 14.6562 25.066C14.5229 23.966 14.4779 23.8777 14.0296 23.7927C13.7296 23.7344 13.313 23.8494 12.3246 24.261C10.8847 24.861 10.5414 25.1277 10.203 25.8943C10.023 26.2976 10.003 26.5393 10.103 27.0059C10.228 27.5759 10.733 28.4926 10.9264 28.4942C10.9764 28.4942 11.253 28.6842 11.5397 28.9142C12.018 29.2976 12.0513 29.3642 11.9147 29.6775C11.6213 30.3575 10.923 31.1808 10.6414 31.1808C10.483 31.1808 9.83805 30.7275 9.12473 30.1192C7.73144 28.9242 7.67144 28.8026 7.52478 26.8443C7.35812 24.506 7.93144 23.4144 10.4914 21.2194L12.098 19.8411L12.2013 19.0078C12.3063 18.1445 12.158 16.0946 11.9063 14.9629C11.7563 14.2963 11.2697 13.658 10.8064 13.5297C10.3014 13.3897 10.0064 13.6797 9.61972 14.6863C9.20307 15.7763 8.80974 16.1563 8.08643 16.1563C7.63644 16.1563 7.21979 15.8679 6.9298 15.3613C6.72147 14.9996 6.59981 12.818 6.7248 11.6697C6.7848 11.1197 6.78813 10.5597 6.73314 10.4281C6.64314 10.2147 5.86649 9.75309 4.03321 8.82479C3.73414 8.67657 3.44568 8.50783 3.1699 8.3198C2.91184 8.14685 2.63849 7.9979 2.35326 7.87481C1.65661 7.56649 -0.158339 6.50485 0.0116565 6.50485C0.333314 6.50485 1.69494 6.92484 2.42159 7.2465C2.86491 7.44316 3.28823 7.60482 3.36323 7.60482C3.43823 7.60482 4.2932 7.87981 5.26318 8.2148C6.22982 8.55146 7.11479 8.82645 7.22979 8.82645C7.49645 8.82645 7.53811 8.59313 7.45312 7.58316C7.41312 7.12484 7.41478 6.74985 7.45645 6.74985C7.49811 6.74985 7.67644 6.83818 7.8531 6.94651C8.39309 7.2765 9.55306 7.47982 10.9197 7.47982C12.2246 7.48316 13.9296 7.74148 14.5796 8.03814C15.5129 8.46146 16.5979 9.78809 17.9728 12.188C18.9295 13.858 19.9561 14.5646 21.4277 14.5663C22.0227 14.5663 23.611 14.3213 25.7609 13.8996C27.5326 13.5497 29.8725 13.468 30.7808 13.728C31.8891 14.0446 33.3557 14.8946 34.564 15.9179C35.6973 16.8779 35.874 17.0912 36.5706 18.3645C37.4039 19.8845 38.3206 22.0428 39.1372 24.401C39.2539 24.7377 39.4972 25.301 39.6805 25.656C40.1705 26.6026 40.1472 26.661 39.2556 26.661C38.2889 26.661 37.8339 26.5076 37.2006 25.9693C36.5923 25.4527 36.434 25.136 35.4807 22.5527C34.994 21.2261 34.519 20.4311 34.214 20.4311C34.0074 20.4311 33.5874 21.8511 33.5874 22.5527C33.5874 23.0527 33.899 23.7227 34.704 24.9643C36.0173 26.9809 36.7073 29.8342 36.4306 32.0975L36.314 33.0741L35.4373 33.1108C34.0624 33.1674 34.0757 33.1874 34.0757 31.2192C34.0757 29.1242 33.934 28.6709 33.0091 27.8276C32.6257 27.4776 31.7624 26.4776 31.0941 25.611C30.4241 24.7443 29.7842 24.0344 29.6708 24.0344C29.4075 24.0344 29.2775 24.7477 29.2642 26.2543C29.2542 27.2459 29.2142 27.4143 28.9225 27.7209C28.1292 28.5492 27.5726 30.0592 27.2292 32.3108C27.1526 32.8108 27.0876 32.9024 26.7642 32.9741C26.2893 33.0808 24.9726 33.0991 24.8593 32.9991C24.761 32.9158 24.9326 31.5608 25.3226 29.3492C25.4693 28.5092 25.6309 27.3826 25.6793 26.8443C25.7676 25.8876 25.5709 24.0944 25.3393 23.7327C25.2426 23.5827 24.751 23.5494 22.4527 23.5394C20.9277 23.5344 19.2561 23.4844 18.7361 23.4294L17.7945 23.3294V23.746C17.7945 24.196 17.9112 24.5893 18.6778 26.7826C18.9478 27.5559 19.3394 28.7326 19.5494 29.3992L19.9278 30.6125L19.6078 31.5992C19.4516 32.0949 19.2577 32.578 19.0278 33.0441C18.7745 33.4874 18.7445 33.5008 18.0362 33.4941C17.656 33.4915 17.2774 33.4451 16.9079 33.3558Z" fill="#499848"/>
</svg>
