<svg width="40" height="40" viewBox="0 0 40 40" fill="none" xmlns="http://www.w3.org/2000/svg">
<path d="M12.777 24.7845C13.172 25.0295 19.1402 26.2428 20.5985 26.4845C21.1035 26.5912 20.7452 27.1112 20.0485 27.4628C18.4769 27.8812 10.8537 24.7845 12.777 24.7845ZM22.1885 2.67828L28.03 8.6115C28.585 9.17816 28.5767 10.2748 28.2667 10.5898L25.3667 8.26984L24.7968 11.7048L22.3718 10.4265L18.4919 12.8764L17.2069 7.70985L15.122 11.3165H11.9337C10.6337 11.3165 10.4821 9.66648 11.662 8.48651C13.7237 6.26155 16.0903 3.99325 17.3769 2.67828C18.6702 1.35664 20.9218 1.39497 22.1885 2.67828ZM16.3103 1.61663L1.5439 16.7264C-3.44433 22.9046 4.9405 22.1863 8.53376 23.9646C9.82373 25.2829 3.59219 26.2562 4.88217 27.5745C6.17048 28.8928 12.6787 30.1144 13.9703 31.4311C15.2586 32.7494 11.3304 34.1477 12.6203 35.4643C13.9087 36.7843 16.8919 35.5343 17.4502 38.5776C17.8469 40.7509 22.8235 39.5109 25.2568 37.731C26.5467 36.4127 22.7901 36.536 24.0801 35.2177C27.285 31.9394 30.2716 34.0277 31.3683 30.7411C31.9099 29.1178 26.6484 28.2395 27.94 26.9212C31.65 24.7545 44.4714 23.3446 38.3865 17.2613L23.0835 1.61663C21.2118 -0.180003 18.0852 -0.200003 16.3103 1.61663ZM33.2716 30.7411C33.2716 31.4911 38.7948 31.9827 38.7948 30.5644C38.0082 28.2878 33.9249 28.4411 33.2716 30.7411ZM8.3921 34.7244C9.69874 35.856 11.7204 34.4427 12.3253 32.8644C11.0587 31.1811 6.31381 32.9261 8.3921 34.7244ZM32.5783 32.2811C30.8933 33.7944 32.7683 35.3277 34.4299 34.351C34.7999 33.976 34.4182 32.6577 32.5783 32.2811Z" fill="#808080"/>
</svg>
