<svg width="40" height="40" viewBox="0 0 40 40" fill="none" xmlns="http://www.w3.org/2000/svg">
<path d="M33.4967 1.92638e-06C34.351 -0.000655888 35.1971 0.167164 35.9865 0.493858C36.776 0.820553 37.4932 1.29971 38.0973 1.90391C38.7013 2.5081 39.1803 3.22548 39.5068 4.01499C39.8333 4.8045 40.0009 5.65065 40 6.505V33.495C40.0009 34.3494 39.8333 35.1955 39.5068 35.985C39.1803 36.7745 38.7013 37.4919 38.0973 38.0961C37.4932 38.7003 36.776 39.1794 35.9865 39.5061C35.1971 39.8328 34.351 40.0007 33.4967 40H10.655L10.57 22.7667V22.6433C10.57 16.11 15.7567 10.8267 22.175 10.8267C26.025 10.8267 29.1367 13.9967 29.1367 17.9167C29.1367 21.8367 26.025 25.0067 22.175 25.0067C20.8917 25.0067 19.8533 23.95 19.8533 22.6433C19.8533 21.3383 20.8917 20.28 22.175 20.28C23.4567 20.28 24.495 19.2233 24.495 17.9167C24.495 16.61 23.4567 15.5533 22.175 15.5533C18.325 15.5533 15.2117 18.72 15.2117 22.6417C15.2117 26.5617 18.325 29.7317 22.175 29.7317C28.5917 29.7317 33.7783 24.45 33.7783 17.915C33.7783 11.3817 28.5917 6.1 22.175 6.1C13.1917 6.1 5.925 13.4933 5.925 22.6417V22.785L5.96334 39.9767C4.33709 39.8423 2.82091 39.1011 1.71608 37.9002C0.611253 36.6994 -0.00135094 35.1268 3.42197e-06 33.495V6.505C-0.000873318 5.65065 0.16673 4.8045 0.493222 4.01499C0.819714 3.22548 1.29869 2.5081 1.90273 1.90391C2.50677 1.29971 3.22403 0.820553 4.01346 0.493858C4.80288 0.167164 5.64898 -0.000655888 6.50334 1.92638e-06H33.4967Z" fill="#18A497"/>
</svg>
