<svg width="40" height="40" viewBox="0 0 40 40" fill="none" xmlns="http://www.w3.org/2000/svg">
<path d="M4.07714 3.15691H35.9219C36.336 3.15691 36.7332 3.32141 37.026 3.61421C37.3189 3.90701 37.4834 4.30414 37.4834 4.71823C37.4834 5.13231 37.3189 5.52944 37.026 5.82224C36.7332 6.11505 36.336 6.27954 35.9219 6.27954H4.07714C3.66341 6.27913 3.26674 6.11461 2.97419 5.82209C2.68164 5.52957 2.51711 5.13295 2.51669 4.71926C2.51669 4.30526 2.68103 3.90819 2.97361 3.61525C3.26619 3.32231 3.66309 3.15746 4.07714 3.15691Z" fill="#696969"/>
<path d="M4.35505 0H10.7563V1.47717H4.35505V0Z" fill="#009FE3"/>
<path d="M12.7292 0H19.131V1.47717H12.7292V0Z" fill="#C7D302"/>
<path d="M20.9896 0H27.3934V1.47717H20.9896V0Z" fill="#F07E16"/>
<path d="M29.2178 0H35.6196V1.47717H29.2178V0ZM29.2178 7.90526H35.6196V18.727H29.2178V7.90526Z" fill="#DF2815"/>
<path d="M20.9896 7.90526H27.4059V25.4854H20.9896V7.90526Z" fill="#F07E16"/>
<path d="M12.7292 7.90526H19.131V34.2378H12.7292V7.90526Z" fill="#C7D302"/>
<path d="M4.35505 7.90526H10.7563V40H4.35505V7.90526Z" fill="#009FE3"/>
</svg>
