<svg width="40" height="40" viewBox="0 0 40 40" fill="none" xmlns="http://www.w3.org/2000/svg">
<path d="M20 0C8.955 0 0 8.955 0 20C0 31.0467 8.955 40 20 40C31.0467 40 40 31.0467 40 20C40 8.955 31.0467 0 20 0ZM20 1.855C30.005 1.855 38.145 9.995 38.145 20C38.145 30.005 30.005 38.145 20 38.145C9.995 38.145 1.855 30.005 1.855 20C1.855 9.995 9.995 1.855 20 1.855ZM31.7167 10.5233C30.8233 10.52 29.5833 11.03 27.9583 12.3533C26.205 13.7833 21.6017 17.4283 21.6017 17.4283L23.31 19.595C31.1333 15.3317 33.6267 14.3167 33.5033 12.4383C33.4333 11.3817 32.8633 10.5283 31.715 10.5233H31.7167ZM30.8717 11.7767C31.1167 11.7767 31.315 11.9533 31.315 12.175C31.315 12.395 31.1167 12.5717 30.8717 12.5717C30.6283 12.5717 30.43 12.395 30.43 12.175C30.43 11.89 30.7 11.7767 30.8717 11.7767ZM28.2383 14.2583C28.2383 14.4767 28.0417 14.655 27.7967 14.655C27.5517 14.655 27.3567 14.4767 27.3567 14.2583C27.3567 14.045 27.54 13.8683 27.7567 13.8583C27.9733 13.8483 28.2383 13.9867 28.2383 14.2583ZM24.7233 15.9417C24.9683 15.9417 25.1667 16.1183 25.1667 16.3383C25.1667 16.5583 24.9667 16.735 24.7233 16.735C24.48 16.735 24.28 16.5583 24.28 16.3383C24.28 16.0917 24.5117 15.9417 24.7233 15.9417ZM20.6483 17.5617C18.145 17.9367 10.97 19.215 7.29833 22.015L13.255 30.9933C13.255 30.9933 21.0983 26.1067 23.0267 20.5867L20.6483 17.5617Z" fill="#60A839"/>
</svg>
