<svg width="40" height="40" viewBox="0 0 40 40" fill="none" xmlns="http://www.w3.org/2000/svg">
<path d="M36.9978 30.8302L20.7147 40.0005V32.858L30.86 27.3017L36.9978 30.8302ZM38.1117 29.8258V10.6475L32.153 14.0715V26.3982L38.1117 29.8258ZM3.00216 30.8302L19.2853 40.0005V32.858L9.13999 27.3017L3.00216 30.8302ZM1.88833 29.8258V10.6475L7.84683 14.0715V26.3982L1.88833 29.8258ZM2.58549 9.40667L19.2853 0V6.90567L8.58666 12.7645L8.50516 12.8112L2.58549 9.40667ZM37.4147 9.40667L20.7147 0V6.90567L31.4133 12.7647L31.4948 12.8113L37.4147 9.40667ZM19.2855 31.2333L9.27616 25.7545V14.8975L19.2852 20.6517L19.2855 31.2333ZM20.7147 31.2333L30.7235 25.7545V14.8975L20.7147 20.6517V31.2333ZM9.95399 13.641L20.0018 8.1385L30.05 13.641L20.002 19.4185L9.95399 13.641Z" fill="#8DD6F9"/>
</svg>
