<svg width="40" height="40" viewBox="0 0 40 40" fill="none" xmlns="http://www.w3.org/2000/svg">
<path d="M10.4932 17.0686L0.428878 26.6229C-0.142959 27.1657 -0.142959 27.9257 0.428878 28.36L2.48749 30.3143C3.05933 30.8571 3.85991 30.8571 4.31738 30.3143L14.3817 20.76C14.9535 20.2171 14.9535 19.4571 14.3817 19.0229L12.3231 17.0686C11.8656 16.6343 10.9507 16.6343 10.4932 17.0686Z" fill="#808080"/>
<path d="M4.31738 9.46857L14.3817 19.0229C14.9535 19.5657 14.9535 20.3257 14.3817 20.76L12.3231 22.7143C11.7513 23.2571 10.9507 23.2571 10.4932 22.7143L0.428878 13.16C-0.142959 12.6171 -0.142959 11.8571 0.428878 11.4229L2.48749 9.46857C2.94496 9.03429 3.85991 9.03429 4.31738 9.46857Z" fill="#808080"/>
<path d="M38.8563 25.4286H20.5575C19.8713 25.4286 19.4139 25.8629 19.4139 26.5143V29.7714C19.4139 30.4229 19.8713 30.8571 20.5575 30.8571H38.8563C39.5425 30.8571 40 30.4229 40 29.7714V26.5143C40 25.8629 39.5425 25.4286 38.8563 25.4286Z" fill="#808080"/>
</svg>
